<?xml version="1.0" encoding="UTF-8"?>
<svg id="Layer_1" xmlns="http://www.w3.org/2000/svg" version="1.1" viewBox="0 0 512 512">
  <!-- Generator: Adobe Illustrator 29.4.0, SVG Export Plug-In . SVG Version: 2.1.0 Build 152)  -->
  <defs>
    <style>
      .st0 {
        fill: #fff;
      }
    </style>
  </defs>
  <path class="st0" d="M391.5,133c-11.67,0-25.75,3.67-42.25,11s-34.25,17.5-53.25,30.5l-1,.5c-5.67-2-11.83-3.58-18.5-4.75s-13.5-1.75-20.5-1.75c-16.67,0-32.25,3.17-46.75,9.5s-27.08,14.83-37.75,25.5h0c-10.67,10.67-19.17,23.25-25.5,37.75s-9.5,30.08-9.5,46.75c0,6.33.5,12.67,1.5,19s2.5,12.5,4.5,18.5v-1c-21.67,30-36.67,56.75-45,80.25s-7.83,39.92,1.5,49.25h0c9.67,9.67,26.92,9.92,51.75.75,24.83-9.17,52.75-25.25,83.75-48.25l1-1c3,.67,6.25,1.17,9.75,1.5s7.08.5,10.75.5c16.67,0,32.25-3.17,46.75-9.5s27.08-14.83,37.75-25.5h0c10.67-10.67,19.17-23.25,25.5-37.75s9.5-30.08,9.5-46.75c0-4-.25-8-.75-12s-1.08-8-1.75-12v1c20.67-29,34.75-54.75,42.25-77.25s6.75-38.42-2.25-47.75h0c-2.67-2.33-5.83-4.17-9.5-5.5s-7.83-1.83-12.5-1.5h.5ZM366.5,151.5c2.67-.33,5.25-.08,7.75.75s4.42,2.08,5.75,3.75h0c5.33,5,6,13.92,2,26.75s-11.5,27.92-22.5,45.25v.5c-2.67-4.67-5.58-9.08-8.75-13.25s-6.58-8.08-10.25-11.75h0c-5-5-10.5-9.58-16.5-13.75s-12.33-7.75-19-10.75l-.5-.5c12.67-8.33,24.25-14.83,34.75-19.5s19.42-7.17,26.75-7.5h.5ZM145.5,333.5c3.33,7.67,7.17,14.75,11.5,21.25s9.17,12.42,14.5,17.75h0c4,4,8.25,7.67,12.75,11,4.5,3.33,9.08,6.33,13.75,9l1,.5c-20.33,14-38,23.67-53,29s-25.5,5.17-31.5-.5h0c-5.67-6-5.58-16.83.25-32.5,5.83-15.67,16.08-34,30.75-55v-.5h0Z"/>
</svg>