<?xml version="1.0" encoding="UTF-8"?>
<svg id="Layer_1" xmlns="http://www.w3.org/2000/svg" version="1.1" viewBox="0 0 512 512">
  <!-- Generator: Adobe Illustrator 29.4.0, SVG Export Plug-In . SVG Version: 2.1.0 Build 152)  -->
  <defs>
    <style>
      .st0 {
        fill: #fff;
      }
    </style>
  </defs>
  <path class="st0" d="M137.71,18.33L17.87,138.17l29.58,29.58c23.04-53.7,66.14-96.8,119.84-119.84l-29.58-29.58h0ZM376,18.37l-29.56,29.55c53.69,23.05,96.79,66.15,119.82,119.86l29.58-29.57-119.84-119.84h0ZM242.73,55.41c-105.32,7.23-188.28,94.72-188.28,201.9s90.47,202.4,202.4,202.4c32.75,0,63.66-7.76,91.01-21.52l-22.26-15.78c-21.17,8.84-44.39,13.73-68.74,13.73-98.65,0-178.83-80.17-178.83-178.82,0-90.94,68.13-166.18,156.07-177.38l8.64-24.53h0ZM272.16,55.48l8.55,24.6c87.4,11.69,154.96,86.67,154.96,177.23,0,48.23-19.17,92.04-50.29,124.23l8.63,24.69c40.12-36.96,65.23-89.96,65.23-148.92,0-106.78-82.33-194.02-187.09-201.83h0ZM257.41,69.97l-32.3,91.71h18.93v45.07c4.35-1.18,8.92-1.82,13.63-1.82,4.36,0,8.6.55,12.65,1.56v-44.81h18.98l-31.89-91.71h0ZM329.23,114.39l-17.2,29.79c-3.45-1.66-6.98-3.16-10.6-4.5l14.14,40.68h-26.58v35.06c12.7,9.56,20.95,24.76,20.95,41.79,0,8.7-2.16,16.91-5.96,24.14l40.7,54.19,19.47-14.66,4.92,14.08,20.6,11.9c3.48-5.15,6.66-10.52,9.53-16.08l-29.35-16.95c6.97-13.84,11.45-29.15,12.86-45.35h33.86c.25-3.69.39-7.41.39-11.17,0-2.52-.07-5.03-.18-7.52h-33.82c-.98-16.42-5.11-31.99-11.8-46.11l29.45-17c-2.76-5.62-5.83-11.05-9.21-16.27l-29.48,17.02c-8.97-13.35-20.43-24.88-33.73-33.92l17.15-29.71c-5.18-3.44-10.57-6.58-16.14-9.41h0ZM183.85,114.71c-5.57,2.85-10.94,6.02-16.1,9.48l17.62,30.52c-12.89,9.09-23.99,20.54-32.67,33.74l-30.65-17.7c-3.36,5.23-6.42,10.67-9.17,16.29l30.73,17.74c-6.38,13.83-10.33,29.02-11.29,45.01h-35.43c-.11,2.49-.18,5-.18,7.52,0,3.76.14,7.48.39,11.17h35.48c1.38,15.77,5.66,30.71,12.32,44.26l-30.61,17.67c2.86,5.57,6.03,10.94,9.49,16.1l30.59-17.66c8.74,12.62,19.74,23.56,32.42,32.24l-17.53,30.35c5.2,3.4,10.62,6.51,16.22,9.29l17.47-30.26c13.54,6.55,28.43,10.75,44.15,12.05v34.62c3.22.19,6.47.3,9.75.3,3,0,5.98-.09,8.94-.25v-34.5c6.6-.42,13.05-1.36,19.33-2.76l10.68-8.05-47.52-63.26c-24.33-4.45-42.91-25.86-42.91-51.43,0-16.59,7.83-31.43,19.98-41.03v-35.82h-26.63l14.2-40.31c-3.93,1.5-7.78,3.18-11.51,5.06l-17.55-30.4h0ZM257.66,223.61c-18.67,0-33.6,14.93-33.6,33.61s14.94,33.6,33.6,33.6,33.6-14.93,33.6-33.6-14.93-33.6-33.6-33.6h0ZM292.02,296.54c-5.98,5.23-13.14,9.14-21.03,11.23l50.95,67.83-14.58,10.98,79.74,56.52-32.14-91.9-13.98,10.52-48.97-65.19h0ZM466.25,346.87c-14.2,33.1-36.04,62.17-63.27,85l9.7,27.73,83.15-83.15-29.58-29.58h0ZM47.46,346.9l-29.58,29.59,119.84,119.84,29.6-29.6c-53.7-23.03-96.81-66.13-119.86-119.82ZM370.8,454.45c-7.85,4.55-15.99,8.65-24.39,12.25l29.58,29.58,22.33-22.33-27.51-19.5Z"/>
</svg>