<?xml version="1.0" encoding="UTF-8"?>
<svg xmlns="http://www.w3.org/2000/svg" version="1.1" xmlns:cc="http://creativecommons.org/ns#" xmlns:dc="http://purl.org/dc/elements/1.1/" xmlns:inkscape="http://www.inkscape.org/namespaces/inkscape" xmlns:rdf="http://www.w3.org/1999/02/22-rdf-syntax-ns#" xmlns:sodipodi="http://sodipodi.sourceforge.net/DTD/sodipodi-0.dtd" xmlns:svg="http://www.w3.org/2000/svg" viewBox="0 0 32 32">
  <!-- Generator: Adobe Illustrator 29.4.0, SVG Export Plug-In . SVG Version: 2.1.0 Build 152)  -->
  <defs>
    <style>
      .st0 {
        fill: #fff;
      }
    </style>
  </defs>
  <g id="svg8" inkscape:version="0.92.4 (5da689c313, 2019-01-14)">
    <sodipodi:namedview id="base" bordercolor="#666666" borderopacity="1.0" inkscape:current-layer="layer1" inkscape:cx="-3.8471442" inkscape:cy="-9.9779168" inkscape:document-units="mm" inkscape:pagecheckerboard="true" inkscape:pageopacity="0.0" inkscape:pageshadow="2" inkscape:window-height="1377" inkscape:window-maximized="1" inkscape:window-width="2560" inkscape:window-x="-8" inkscape:window-y="-8" inkscape:zoom="7.9195959" pagecolor="#ffffff" showgrid="false" units="px"/>
    <g id="layer1" inkscape:groupmode="layer" inkscape:label="Layer 1">
      <g id="g817">
        <path id="path815" class="st0" d="M16,3.47c-1.03,0-2.01.2-2.94.59-.91.39-1.7.92-2.39,1.6s-1.23,1.48-1.62,2.41c-.39.91-.59,1.87-.59,2.9h0c0,1.05.2,2.03.59,2.94.39.91.93,1.7,1.62,2.39s1.48,1.23,2.39,1.62c.93.39,1.91.59,2.94.59h0c1.03,0,2.01-.2,2.94-.59.91-.39,1.7-.93,2.39-1.62s1.23-1.48,1.62-2.39c.39-.91.59-1.89.59-2.94h0c0-.17,0-.34-.02-.51s-.03-.34-.06-.51v.04c-.22,1.37-.86,2.51-1.91,3.42-1.05.91-2.28,1.36-3.68,1.36h0c-1.54,0-2.87-.55-3.97-1.65s-1.65-2.44-1.65-4.01h0c0-1.4.45-2.62,1.36-3.66s2.02-1.67,3.34-1.89h.04c-.15-.02-.31-.04-.48-.06s-.34-.02-.51-.02ZM5.97,19.75v6.1c-.44.22-.87.45-1.29.68s-.82.48-1.21.75l1.25,1.25c1.25-.93,2.89-1.63,4.93-2.1s4.15-.7,6.36-.7,4.32.23,6.36.7,3.68,1.16,4.93,2.1l1.25-1.25c-.39-.27-.8-.52-1.21-.75s-.85-.46-1.29-.68v-3.57h-2.5v2.54c-1.62-.56-3.27-.94-4.96-1.14s-3.38-.2-5.07,0v-1.4h-2.54v1.8c-.2.05-.4.1-.61.15s-.42.11-.64.18v-4.67h-3.75Z" inkscape:connector-curvature="0"/>
      </g>
    </g>
  </g>
</svg>