<?xml version="1.0" encoding="UTF-8"?>
<svg id="Layer_1" xmlns="http://www.w3.org/2000/svg" version="1.1" viewBox="0 0 36 36">
  <!-- Generator: Adobe Illustrator 29.4.0, SVG Export Plug-In . SVG Version: 2.1.0 Build 152)  -->
  <defs>
    <style>
      .st0 {
        fill: #fff;
      }
    </style>
  </defs>
  <path class="st0" d="M18,5.07l-4.82,4.78,4.82,4.82,4.82-4.82-4.82-4.78ZM8.4,14.66v8.4c1.8.59,3.4.88,4.78.88s3.01.9,4.82,2.71c1.8-1.8,3.4-2.71,4.78-2.71s3.01-.29,4.82-.88v-8.4c-1.8.59-3.41.89-4.82.91-1.38,0-2.98.89-4.78,2.67-1.8-1.8-3.41-2.71-4.82-2.71s-2.98-.29-4.78-.88ZM6.01,17.05v9.6l9.6,2.39v1.2h4.78v-1.2l9.6-2.39v-9.6l-1.2.28v8.12l-9.6,2.39v.91l-1.2.28-1.2-.28v-.91l-9.6-2.39v-8.12l-1.2-.28Z"/>
</svg>