<?xml version="1.0" encoding="UTF-8"?>
<svg id="Layer_1" xmlns="http://www.w3.org/2000/svg" version="1.1" viewBox="0 0 512 512">
  <!-- Generator: Adobe Illustrator 29.4.0, SVG Export Plug-In . SVG Version: 2.1.0 Build 152)  -->
  <defs>
    <style>
      .st0 {
        fill: #fff;
      }
    </style>
  </defs>
  <path class="st0" d="M102.5,179c-4.67,0-8.67,1.67-12,5s-5,7.33-5,12v184c0,4.67,1.67,8.67,5,12s7.33,5,12,5h307c4.67,0,8.67-1.67,12-5s5-7.33,5-12v-184c0-4.67-1.67-8.67-5-12s-7.33-5-12-5H102.5ZM187.5,210.5c8.33,0,15.42,2.92,21.25,8.75s8.75,12.92,8.75,21.25-2.92,14.92-8.75,20.75c-5.83,5.83-12.92,8.75-21.25,8.75s-14.92-2.92-20.75-8.75c-5.83-5.83-8.75-12.75-8.75-20.75s2.92-15.42,8.75-21.25,12.75-8.75,20.75-8.75ZM290,228.5h102.5v25.5h-102.5v-25.5ZM149.5,274.5h9.5c3.67,4,8,7.08,13,9.25s10.17,3.25,15.5,3.25c5.67,0,11-1.08,16-3.25s9.33-5.25,13-9.25h9.5v9.5c2,1,4.08,2.08,6.25,3.25s4.42,2.58,6.75,4.25c4.33,17,8.25,30.08,11.75,39.25s5.25,17.42,5.25,24.75c-6,2.33-12,4.33-18,6s-12.17,3-18.5,4l-20-16c-6,.33-14.25,0-24.75-1s-19.92-2.67-28.25-5l-5,19c-3.67-1-7.33-2.08-11-3.25-3.67-1.17-7.33-2.42-11-3.75,0-7.33,1.75-15.58,5.25-24.75s7.42-22.25,11.75-39.25c2.33-1.67,4.58-3.08,6.75-4.25s4.25-2.25,6.25-3.25v-9.5ZM290,275h102.5v26h-102.5v-26ZM290,322h68.5v25.5h-68.5v-25.5Z"/>
</svg>