<?xml version="1.0" encoding="UTF-8"?>
<svg id="Layer_1" xmlns="http://www.w3.org/2000/svg" version="1.1" viewBox="0 0 512 512">
  <!-- Generator: Adobe Illustrator 29.4.0, SVG Export Plug-In . SVG Version: 2.1.0 Build 152)  -->
  <defs>
    <style>
      .st0 {
        fill: #fff;
      }
    </style>
  </defs>
  <path class="st0" d="M239,458.5h-51.5v-153.5h25.5v34l26,17.5v102ZM222,117.5l-17,34h-85.5v34l68,17v51.5l34.5,17,17,51h34l17-51,34.5-17v-51.5l68-17v-34h-85.5l-17-34h-68ZM256,151.5l34,34-34,34-34-34,34-34ZM273.5,458.5h51v-153.5h-26v34l-25,17.5v102ZM392.5,219.5l-34,9v110.5l34-17v-102.5ZM119.5,219.5l34,9v110.5l-34-17v-102.5Z"/>
</svg>