<?xml version="1.0" encoding="UTF-8"?>
<svg xmlns="http://www.w3.org/2000/svg" version="1.1" xmlns:cc="http://creativecommons.org/ns#" xmlns:dc="http://purl.org/dc/elements/1.1/" xmlns:inkscape="http://www.inkscape.org/namespaces/inkscape" xmlns:rdf="http://www.w3.org/1999/02/22-rdf-syntax-ns#" xmlns:sodipodi="http://sodipodi.sourceforge.net/DTD/sodipodi-0.dtd" xmlns:svg="http://www.w3.org/2000/svg" viewBox="0 0 32 32">
  <!-- Generator: Adobe Illustrator 29.4.0, SVG Export Plug-In . SVG Version: 2.1.0 Build 152)  -->
  <defs>
    <style>
      .st0 {
        fill: #fff;
      }
    </style>
  </defs>
  <g id="svg8" inkscape:version="0.92.4 (5da689c313, 2019-01-14)">
    <sodipodi:namedview id="base" bordercolor="#666666" borderopacity="1.0" inkscape:current-layer="g817" inkscape:cx="8.5772003" inkscape:cy="37.171414" inkscape:document-units="mm" inkscape:pagecheckerboard="true" inkscape:pageopacity="0.0" inkscape:pageshadow="2" inkscape:window-height="1377" inkscape:window-maximized="1" inkscape:window-width="2560" inkscape:window-x="-8" inkscape:window-y="-8" inkscape:zoom="11.2" pagecolor="#ffffff" showgrid="false" units="px"/>
    <g id="layer1" inkscape:groupmode="layer" inkscape:label="Layer 1">
      <g id="g817">
        <path id="path815" class="st0" d="M6.27,2.11L2.11,6.27v2.77h1.38l5.54-5.54v-1.38h-2.77ZM22.96,2.11v1.38l5.54,5.54h1.38v-2.77l-4.15-4.15h-2.77ZM16,6.27c-1.33,0-2.47.48-3.42,1.43s-1.43,2.1-1.43,3.46.48,2.47,1.43,3.42,2.09,1.43,3.42,1.43,2.47-.48,3.42-1.43c.95-.95,1.43-2.09,1.43-3.42s-.48-2.51-1.43-3.46c-.95-.95-2.09-1.43-3.42-1.43ZM9.73,16.69v1.51c-.3.19-.62.39-.96.59l-1.12.67c-.08.33-.16.62-.22.88-.07.26-.14.52-.22.79l8.8,4.6,8.8-4.6c-.08-.27-.16-.54-.22-.79-.07-.26-.14-.55-.22-.88l-1.12-.67s-.32-.2-.96-.59v-1.51h-1.63c-.43.49-.93.9-1.49,1.22s-1.15.56-1.77.69v2.97l-1.38,1.38-1.38-1.38v-2.97c-.62-.14-1.21-.37-1.77-.69s-1.05-.73-1.49-1.22h-1.63ZM2.11,22.96v2.77l4.15,4.15h2.77v-1.38l-5.54-5.54h-1.38ZM28.5,22.96l-5.54,5.54v1.38h2.77l4.15-4.15v-2.77h-1.38Z" inkscape:connector-curvature="0"/>
      </g>
    </g>
  </g>
</svg>