<?xml version="1.0" encoding="UTF-8"?>
<svg id="Layer_1" xmlns="http://www.w3.org/2000/svg" version="1.1" viewBox="0 0 512 512">
  <!-- Generator: Adobe Illustrator 29.4.0, SVG Export Plug-In . SVG Version: 2.1.0 Build 152)  -->
  <defs>
    <style>
      .st0 {
        fill: #fff;
      }
    </style>
  </defs>
  <path class="st0" d="M256,52.5c-16.33,0-32.25,1.67-47.75,5s-30.25,8-44.25,14c-4.33-5.33-9.58-9.58-15.75-12.75s-12.75-4.75-19.75-4.75c-12.33,0-22.92,4.42-31.75,13.25s-13.25,19.42-13.25,31.75c0,4,.58,8,1.75,12s2.75,7.67,4.75,11c-10.67,10.67-20.33,22.17-29,34.5-8.33,12.67-15.5,26.08-21.5,40.25s-10.67,28.92-14,44.25c-3,15.33-4.5,31-4.5,47,0,32.33,6.17,62.83,18.5,91.5,12.33,28.33,29.17,53.17,50.5,74.5,21.33,21.33,46.33,38.17,75,50.5,28.33,12.33,58.67,18.5,91,18.5s63.17-6.17,91.5-18.5c28.67-12.33,53.58-29.17,74.75-50.5,21.17-21.33,37.92-46.17,50.25-74.5,12.33-28.67,18.5-59.17,18.5-91.5s-6.17-62.83-18.5-91.5c-12.33-28.33-29.08-53.17-50.25-74.5s-46.08-38.33-74.75-51c-28.33-12.33-58.67-18.5-91-18.5h-.5ZM256.5,72c29.67,0,57.67,5.67,84,17s49.25,26.75,68.75,46.25,34.92,42.42,46.25,68.75,17,54.33,17,84-5.67,58.17-17,84.5c-11.33,26-26.75,48.83-46.25,68.5-19.5,19.67-42.42,35-68.75,46-26.33,11.33-54.33,17-84,17s-58.17-5.67-84.5-17c-26.33-11-49.33-26.33-69-46-19.67-19.67-35.17-42.5-46.5-68.5-11.33-26.33-17-54.5-17-84.5,0-14.67,1.5-29.17,4.5-43.5,2.67-14,6.75-27.42,12.25-40.25s12.25-25.08,20.25-36.75c7.67-11.67,16.33-22.33,26-32,3.67,2.67,7.67,4.67,12,6s9,2,14,2c12.33,0,22.83-4.33,31.5-13s13-19.17,13-31.5c0-1.67-.08-3.33-.25-5s-.42-3.33-.75-5c13-5.67,26.58-9.92,40.75-12.75s28.58-4.25,43.25-4.25h.5ZM256,124c-22.67,0-44.17,4.33-64.5,13-20,8.67-37.5,20.5-52.5,35.5s-26.83,32.5-35.5,52.5c-8.67,20.33-13,41.83-13,64.5s4.33,44.5,13,64.5,20.5,37.5,35.5,52.5,32.5,26.83,52.5,35.5c20.33,8.67,41.83,13,64.5,13,17.67,0,34.5-2.58,50.5-7.75,16-5.17,30.67-12.42,44-21.75,3.67,2,7.58,3.58,11.75,4.75s8.42,1.75,12.75,1.75c13.33,0,24.67-4.67,34-14s14-20.5,14-33.5c0-6.67-1.25-12.75-3.75-18.25s-5.75-10.42-9.75-14.75c4-9.67,7-19.67,9-30s3-21,3-32c0-22.67-4.33-44.17-13-64.5-8.67-20-20.5-37.5-35.5-52.5s-32.5-26.83-52.5-35.5-41.5-13-64.5-13h0ZM256,143c20.33,0,39.5,3.83,57.5,11.5,17.67,7.67,33.17,18.08,46.5,31.25s23.83,28.75,31.5,46.75c7.67,17.67,11.5,36.67,11.5,57,0,9-.75,17.75-2.25,26.25s-3.75,16.75-6.75,24.75c-3-1.33-6.08-2.33-9.25-3s-6.42-1-9.75-1c-13.33,0-24.67,4.67-34,14s-14,20.67-14,34c0,5,.83,9.92,2.5,14.75s4,9.25,7,13.25c-11.67,7.67-24.25,13.58-37.75,17.75s-27.75,6.25-42.75,6.25c-20.33,0-39.33-3.83-57-11.5-18-7.67-33.67-18.17-47-31.5-13.33-13.33-23.83-28.83-31.5-46.5-7.67-18-11.5-37.17-11.5-57.5s3.83-39.33,11.5-57c7.67-18,18.17-33.58,31.5-46.75s29-23.58,47-31.25c17.67-7.67,36.67-11.5,57-11.5h0ZM255,162.5c-3.67,16-9.08,31.25-16.25,45.75s-16.08,27.08-26.75,37.75c-10.33,10.33-22.33,18.67-36,25s-28.5,11.33-44.5,15c16,4,31.25,9.5,45.75,16.5s26.92,15.83,37.25,26.5c10.67,10.67,19.17,22.83,25.5,36.5s11.33,28.5,15,44.5c3.67-16,8.67-30.83,15-44.5s14.83-25.83,25.5-36.5,23.17-19.5,37.5-26.5,29.5-12.5,45.5-16.5c-16-3.67-30.75-8.67-44.25-15s-25.58-14.67-36.25-25c-10.67-10.67-19.58-23.25-26.75-37.75s-12.58-29.75-16.25-45.75h0ZM255,249c10.33,0,19.17,3.67,26.5,11,7.33,7.33,11,16,11,26s-3.67,19.17-11,26.5-16.17,11-26.5,11-18.67-3.67-26-11-11-16.17-11-26.5,3.67-18.67,11-26c7.33-7.33,16-11,26-11h0Z"/>
</svg>