<?xml version="1.0" encoding="UTF-8"?>
<svg id="Layer_1" xmlns="http://www.w3.org/2000/svg" version="1.1" viewBox="0 0 36 36">
  <!-- Generator: Adobe Illustrator 29.4.0, SVG Export Plug-In . SVG Version: 2.1.0 Build 152)  -->
  <defs>
    <style>
      .st0 {
        fill: #fff;
      }
    </style>
  </defs>
  <path class="st0" d="M12.62,16.46v1.3c-.28.14-.57.3-.88.49-.28.16-.6.36-.95.6-.59,2.39-1.14,4.23-1.65,5.52-.49,1.27-.74,2.43-.74,3.48.49.21,1,.4,1.51.56.52.14,1.04.28,1.58.42l.7-2.67c1.17.3,2.5.54,3.97.7,1.48.16,2.62.22,3.45.18l2.85,2.21c.87-.14,1.73-.33,2.6-.56.87-.23,1.71-.52,2.53-.84,0-1.03-.26-2.19-.77-3.48-.49-1.29-1.03-3.13-1.62-5.52-.35-.23-.68-.43-.98-.6-.28-.19-.55-.35-.81-.49v-1.3h-1.41c-.52.56-1.12,1.01-1.83,1.34-.68.3-1.41.46-2.18.46s-1.51-.15-2.21-.46c-.68-.33-1.28-.77-1.79-1.34h-1.37ZM21.59,20.08l2.43,2.39-2.43,2.39-2.39-2.39,2.39-2.39ZM22.18,11.64c0,1.17-.41,2.17-1.23,2.99-.8.82-1.78,1.23-2.95,1.23s-2.13-.41-2.95-1.23c-.82-.82-1.23-1.82-1.23-2.99s.41-2.13,1.23-2.95c.82-.82,1.8-1.23,2.95-1.23s2.16.41,2.95,1.23c.82.82,1.23,1.8,1.23,2.95Z"/>
</svg>