<?xml version="1.0" encoding="UTF-8"?>
<svg id="Layer_1" xmlns="http://www.w3.org/2000/svg" version="1.1" viewBox="0 0 512 512">
  <!-- Generator: Adobe Illustrator 29.4.0, SVG Export Plug-In . SVG Version: 2.1.0 Build 152)  -->
  <defs>
    <style>
      .st0 {
        fill: #fff;
      }
    </style>
  </defs>
  <path class="st0" d="M146.65,53.05v405.9h218.7V53.05h-218.7ZM237.26,71.05h37.44c3.98,0,7.2,3.22,7.2,7.2s-3.22,7.2-7.2,7.2h-37.44c-3.98,0-7.2-3.22-7.2-7.2s3.22-7.2,7.2-7.2ZM255.55,449.51c-9.57,0-17.33-7.76-17.33-17.33,0-9.57,7.76-17.33,17.33-17.33,9.57,0,17.33,7.76,17.33,17.33s-7.76,17.33-17.33,17.33h0ZM350.05,409.45h-189.9V100.75h189.9v308.7Z"/>
</svg>