<?xml version="1.0" encoding="UTF-8"?>
<svg id="Layer_1" xmlns="http://www.w3.org/2000/svg" version="1.1" viewBox="0 0 512 512">
  <!-- Generator: Adobe Illustrator 29.4.0, SVG Export Plug-In . SVG Version: 2.1.0 Build 152)  -->
  <defs>
    <style>
      .st0 {
        fill: #fff;
      }
    </style>
  </defs>
  <path class="st0" d="M256,134.5c-20.33,0-39.83,4.17-58.5,12.5s-35,19.5-49,33.5-25.17,30.33-33.5,49-12.5,38.17-12.5,58.5h34c0-15.33,3.33-30.17,10-44.5,6.67-14.33,15.58-27.08,26.75-38.25s23.92-20.08,38.25-26.75,29.17-10,44.5-10,31.42,3.67,46.25,11,27.75,17,38.75,29l-34,11,85.5,34.5v-98l-22.5,31.5c-14.33-16-31.42-28.83-51.25-38.5s-40.75-14.5-62.75-14.5h0ZM256,254h0c-9.33,0-17.33,3.33-24,10s-10,14.67-10,24h0c0,9.33,3.33,17.33,10,24s14.67,10,24,10h0c9.33,0,17.33-3.33,24-10s10-14.67,10-24h0c0-9.33-3.33-17.33-10-24s-14.67-10-24-10h0ZM375.5,288h0c0,15.33-3.33,30.17-10,44.5s-15.58,27.08-26.75,38.25-23.92,20.08-38.25,26.75-29.17,10-44.5,10-31.42-3.67-46.25-11-27.75-17-38.75-29l34-11-85.5-34.5v98l22.5-31.5c14.33,16,31.42,28.83,51.25,38.5s40.75,14.5,62.75,14.5c20.33,0,39.83-4.17,58.5-12.5s35-19.5,49-33.5,25.17-30.33,33.5-49,12.5-38.17,12.5-58.5h-34Z"/>
</svg>