<?xml version="1.0" encoding="UTF-8"?>
<svg id="Layer_1" xmlns="http://www.w3.org/2000/svg" version="1.1" viewBox="0 0 512 512">
  <!-- Generator: Adobe Illustrator 29.4.0, SVG Export Plug-In . SVG Version: 2.1.0 Build 152)  -->
  <defs>
    <style>
      .st0 {
        fill: #fff;
      }
    </style>
  </defs>
  <path class="st0" d="M256,150.5c-7.67,0-14.17,2.67-19.5,8s-8,11.83-8,19.5h0c0,7.67,2.67,14.25,8,19.75s11.83,8.25,19.5,8.25h0c7.67,0,14.17-2.75,19.5-8.25s8-12.08,8-19.75h0c0-7.67-2.67-14.17-8-19.5s-11.83-8-19.5-8h0ZM174.5,190c-8.33,0-15.5,3-21.5,9s-9,13.33-9,22h0c0,8.33,3,15.5,9,21.5s13.17,9,21.5,9h0c8.67,0,16-3,22-9s9-13.17,9-21.5h0c0-8.67-3-16-9-22s-13.33-9-22-9h0ZM337.5,190h0c-8.67,0-16,3-22,9s-9,13.33-9,22h0c0,8.33,3,15.5,9,21.5s13.33,9,22,9h0c8.33,0,15.5-3,21.5-9s9-13.17,9-21.5h0c0-8.67-3-16-9-22s-13.17-9-21.5-9h0ZM256,236.5c-9.33,0-17.33,3.33-24,10s-10,14.83-10,24.5h0c0,9.33,3.33,17.33,10,24s14.67,10,24,10h0c9.33,0,17.33-3.33,24-10s10-14.67,10-24h0c0-9.67-3.33-17.83-10-24.5s-14.67-10-24-10h0ZM88.5,238c-9.67,0-17.83,3.33-24.5,10-6.67,6.67-10,14.83-10,24.5h0c0,9.33,3.33,17.33,10,24,6.67,6.67,14.83,10,24.5,10h0c9.33,0,17.33-3.33,24-10s10-14.67,10-24h0c0-9.67-3.33-17.83-10-24.5s-14.67-10-24-10h0ZM423.5,238c-9.33,0-17.33,3.33-24,10s-10,14.83-10,24.5h0c0,9.33,3.33,17.33,10,24s14.67,10,24,10h0c9.67,0,17.83-3.33,24.5-10s10-14.67,10-24h0c0-9.67-3.33-17.83-10-24.5s-14.83-10-24.5-10h0ZM164,290.5c-10.33,0-19.25,3.67-26.75,11s-11.25,16.33-11.25,27h0c0,10.33,3.75,19.25,11.25,26.75s16.42,11.25,26.75,11.25h0c10.33,0,19.25-3.75,26.75-11.25s11.25-16.42,11.25-26.75h0c0-10.67-3.75-19.67-11.25-27s-16.42-11-26.75-11h0ZM348,290.5h0c-10.33,0-19.25,3.67-26.75,11s-11.25,16.33-11.25,27h0c0,10.33,3.75,19.25,11.25,26.75s16.42,11.25,26.75,11.25h0c10.33,0,19.25-3.75,26.75-11.25s11.25-16.42,11.25-26.75h0c0-10.67-3.75-19.67-11.25-27s-16.42-11-26.75-11h0ZM256,342.5h0c-11.67,0-21.58,4.08-29.75,12.25s-12.25,18.08-12.25,29.75h0c0,11.67,4.08,21.58,12.25,29.75s18.08,12.25,29.75,12.25h0c11.67,0,21.58-4.08,29.75-12.25s12.25-18.08,12.25-29.75h0c0-11.67-4.08-21.58-12.25-29.75s-18.08-12.25-29.75-12.25h0Z"/>
</svg>