<?xml version="1.0" encoding="UTF-8"?>
<svg id="Content" xmlns="http://www.w3.org/2000/svg" version="1.1" xmlns:x="http://ns.adobe.com/Extensibility/1.0/" viewBox="0 0 1080 1080">
  <!-- Generator: Adobe Illustrator 29.4.0, SVG Export Plug-In . SVG Version: 2.1.0 Build 152)  -->
  <defs>
    <style>
      .st0 {
        fill: #fff;
      }
    </style>
  </defs>
  <path class="st0" d="M716.98,753.37v-193.1c0-.34-.03-.68-.07-1.01-.01-.08-.01-.16-.02-.25-.07-.55-.2-1.09-.37-1.62-.04-.14-.09-.28-.14-.42-.2-.55-.42-1.08-.71-1.59h0c-.29-.5-.64-.96-1.01-1.41-.1-.11-.19-.23-.29-.34-.37-.4-.77-.78-1.21-1.12-.07-.05-.14-.09-.21-.14-.27-.2-.54-.39-.83-.56l-167.23-96.55c-3.02-1.74-6.74-1.74-9.75,0l-167.23,96.55c-.29.17-.56.36-.83.55-.07.05-.15.09-.22.15-.44.34-.84.72-1.21,1.12-.1.11-.2.22-.3.34-.37.44-.72.91-1.01,1.41h0c-.29.5-.52,1.04-.71,1.59-.05.14-.1.28-.14.42-.16.53-.29,1.06-.37,1.62-.01.08-.01.17-.02.25-.03.33-.07.67-.07,1.01v193.1c0,3.48,1.86,6.7,4.88,8.45l167.23,96.55c.29.17.6.31.91.45.07.03.14.08.22.11.52.21,1.05.37,1.58.49.14.03.29.06.43.08.57.1,1.15.17,1.73.17s1.16-.07,1.73-.17c.15-.03.29-.05.43-.08.54-.12,1.07-.28,1.59-.49.08-.03.14-.07.22-.11.31-.14.61-.28.91-.45l167.23-96.55c3.01-1.74,4.86-4.96,4.86-8.45Z"/>
  <path class="st0" d="M474.66,882.02l-162.36-93.74v-187.47c0-4.41-2.96-8.28-7.23-9.42-4.26-1.15-8.76.72-10.97,4.54l-167.23,289.66c-1.74,3.02-1.74,6.74,0,9.75,1.74,3.02,4.96,4.88,8.45,4.88h334.46c4.41,0,8.28-2.97,9.42-7.23,1.14-4.26-.72-8.76-4.54-10.97Z"/>
  <path class="st0" d="M377.64,487.63l162.36-93.73,162.36,93.74c1.52.88,3.2,1.31,4.87,1.31,2.52,0,5.02-.98,6.9-2.86,3.12-3.12,3.76-7.95,1.55-11.77l-167.23-289.66c-1.74-3.02-4.96-4.88-8.45-4.88s-6.7,1.86-8.45,4.88l-167.23,289.65c-2.21,3.82-1.57,8.65,1.55,11.77,3.12,3.12,7.95,3.76,11.77,1.55Z"/>
  <path class="st0" d="M953.13,885.59l-167.23-289.65c-2.21-3.82-6.71-5.69-10.97-4.54-4.26,1.14-7.23,5.01-7.23,9.42v187.47l-162.36,93.74c-3.82,2.21-5.69,6.71-4.54,10.97,1.14,4.26,5.01,7.23,9.42,7.23h334.46c3.48,0,6.7-1.86,8.45-4.88,1.74-3.02,1.74-6.74,0-9.76Z"/>
</svg>